<svg width="44" height="44" viewBox="0 0 44 44" fill="none" xmlns="http://www.w3.org/2000/svg">
<path d="M17.342 30.685H12.8758C12.8483 30.6849 12.8212 30.6778 12.7971 30.6643C12.773 30.6508 12.7528 30.6314 12.7382 30.6078L9.85213 25.9173L6.9649 30.6078C6.95053 30.6314 6.93038 30.6509 6.90639 30.6644C6.88239 30.6779 6.85536 30.685 6.82786 30.685H2.36222C2.33283 30.685 2.30398 30.677 2.27877 30.6618C2.25356 30.6466 2.23295 30.6248 2.21914 30.5987C2.20534 30.5726 2.19887 30.5432 2.20042 30.5137C2.20198 30.4841 2.21151 30.4556 2.22798 30.4311L7.58966 22.4111L2.29398 14.6685C2.27726 14.6441 2.26748 14.6156 2.26572 14.586C2.26396 14.5564 2.27027 14.5268 2.28398 14.5006C2.29769 14.4743 2.31827 14.4523 2.34349 14.437C2.36872 14.4217 2.39763 14.4136 2.4271 14.4136H6.92015C6.94749 14.4136 6.97436 14.4207 6.99823 14.4341C7.02211 14.4475 7.0422 14.4667 7.05663 14.4901L9.85325 18.9656L12.6314 14.5188C12.6509 14.4873 12.6781 14.4612 12.7104 14.4432C12.7427 14.4252 12.7791 14.4158 12.816 14.4158H17.2777C17.3072 14.4158 17.3361 14.4239 17.3613 14.4392C17.3866 14.4546 17.4071 14.4766 17.4208 14.5028C17.4346 14.5291 17.4409 14.5586 17.4391 14.5882C17.4373 14.6178 17.4276 14.6464 17.4108 14.6708L12.1135 22.4111L17.4763 30.4311C17.4926 30.4556 17.5019 30.4841 17.5034 30.5136C17.5048 30.5431 17.4983 30.5724 17.4846 30.5984C17.4708 30.6244 17.4503 30.6462 17.4252 30.6615C17.4001 30.6767 17.3714 30.6848 17.342 30.685ZM25.9517 6.60011C23.7664 6.59727 21.6043 7.0505 19.6018 7.93118C17.5994 8.81186 15.8001 10.1009 14.3178 11.7168C14.3072 11.7286 14.3003 11.7433 14.2979 11.759C14.2954 11.7747 14.2975 11.7908 14.3038 11.8053C14.3102 11.8199 14.3206 11.8322 14.3338 11.841C14.347 11.8498 14.3624 11.8545 14.3782 11.8547H15.0813C15.1198 11.8545 15.1569 11.8403 15.1859 11.8147C17.8051 9.52099 21.1619 8.26104 24.634 8.26851C32.5467 8.26851 38.9605 14.6629 38.9605 22.5507C38.9605 30.4384 32.549 36.8317 24.6362 36.8317C21.1642 36.8391 17.8073 35.5791 15.1881 33.2855C15.1591 33.2599 15.122 33.2457 15.0835 33.2455H14.3804C14.3646 33.2457 14.3492 33.2504 14.336 33.2592C14.3228 33.268 14.3124 33.2803 14.3061 33.2949C14.2997 33.3094 14.2976 33.3255 14.3001 33.3412C14.3026 33.3569 14.3095 33.3716 14.32 33.3834C15.8024 34.9993 17.6016 36.2883 19.6041 37.169C21.6065 38.0497 23.7687 38.5029 25.954 38.5001C34.7046 38.499 41.8002 31.3576 41.8002 22.549C41.8002 13.7403 34.7046 6.60011 25.9517 6.60011ZM32.2357 23.9978H20.2925C20.3971 25.8205 21.9956 27.3926 24.314 27.3926C26.0994 27.3926 27.2371 26.6778 27.9273 25.5801C27.9486 25.5452 27.9822 25.5197 28.0214 25.5086C28.0606 25.4976 28.1025 25.5018 28.1387 25.5205L31.159 27.0965C31.1792 27.107 31.1969 27.1216 31.2111 27.1394C31.2253 27.1572 31.2357 27.1778 31.2415 27.1999C31.2473 27.2219 31.2484 27.245 31.2448 27.2675C31.2412 27.2901 31.2329 27.3116 31.2206 27.3307C29.7825 29.517 27.3137 30.9613 24.2933 30.9613H24.271C19.4859 30.9613 16.2094 27.4377 16.2094 22.549C16.2094 17.6603 19.4831 14.1372 24.2682 14.1372C29.0532 14.1372 32.4997 17.9035 32.4997 22.549C32.5014 22.9738 32.4706 23.3982 32.4075 23.8183C32.3918 23.9027 32.3331 23.9978 32.2357 23.9978ZM28.4827 20.705C28.2327 19.6704 27.0284 17.7048 24.4606 17.7048C21.9939 17.7048 20.726 19.2578 20.425 20.705H28.4827Z" fill="#0A146E"/>
</svg>



